# Blender v2.79 (sub 0) OBJ File: 'cubo.blend'
# www.blender.org
mtllib cubo.mtl
o Cube_Cube.001
v 16.549150 16.549150 -16.549150
v 16.549150 -16.549150 -16.549150
v 16.549150 16.549150 16.549150
v 16.549150 -16.549150 16.549150
v -16.549150 16.549150 -16.549150
v -16.549150 -16.549150 -16.549150
v -16.549150 16.549150 16.549150
v -16.549150 -16.549150 16.549150
vt 0.333176 0.999212
vt 0.000158 0.666194
vt 0.000158 0.999212
vt 0.666509 0.666509
vt 0.333491 0.333491
vt 0.333491 0.666509
vt 0.000158 0.000158
vt 0.333176 0.333176
vt 0.333176 0.000158
vt 0.666824 0.000158
vt 0.999842 0.333176
vt 0.999842 0.000158
vt 0.666509 0.000158
vt 0.333491 0.333176
vt 0.666509 0.333176
vt 0.000158 0.333176
vt 0.333176 0.666194
vt 0.666509 0.333491
vt 0.666824 0.333176
vt 0.333491 0.000158
vn 1.0000 0.0000 0.0000
vn 0.0000 0.0000 1.0000
vn -1.0000 0.0000 0.0000
vn 0.0000 0.0000 -1.0000
vn 0.0000 1.0000 0.0000
vn 0.0000 -1.0000 0.0000
usemtl None
s off
f 3/1/1 2/2/1 1/3/1
f 7/4/2 4/5/2 3/6/2
f 5/7/3 8/8/3 7/9/3
f 1/10/4 6/11/4 5/12/4
f 1/13/5 7/14/5 3/15/5
f 6/16/6 4/17/6 8/8/6
f 3/1/1 4/17/1 2/2/1
f 7/4/2 8/18/2 4/5/2
f 5/7/3 6/16/3 8/8/3
f 1/10/4 2/19/4 6/11/4
f 1/13/5 5/20/5 7/14/5
f 6/16/6 2/2/6 4/17/6
