# Blender v2.78 (sub 0) OBJ File: ''
# www.blender.org
o Cube
v 49.999977 -50.000000 -0.050000
v 49.999977 -50.000000 0.050000
v -49.999985 -50.000000 0.050000
v -49.999958 -50.000000 -0.050000
v 50.000000 50.000000 -0.050000
v 49.999943 50.000000 0.050000
v -49.999996 50.000000 0.050000
v -49.999973 50.000000 -0.050000
vn 0.0000 -1.0000 0.0000
vn 0.0000 1.0000 0.0000
vn 1.0000 -0.0000 0.0000
vn -0.0000 -0.0000 1.0000
vn -1.0000 -0.0000 -0.0003
vn 0.0000 0.0000 -1.0000
vn 0.0000 -1.0000 0.0001
vn 0.0000 1.0000 -0.0001
vn 1.0000 0.0000 0.0006
vn -1.0000 -0.0000 -0.0002
s off
f 2//1 4//1 1//1
f 8//2 6//2 5//2
f 5//3 2//3 1//3
f 6//4 3//4 2//4
f 7//5 4//5 3//5
f 1//6 8//6 5//6
f 2//7 3//7 4//7
f 8//8 7//8 6//8
f 5//9 6//9 2//9
f 6//4 7//4 3//4
f 7//10 8//10 4//10
f 1//6 4//6 8//6
