# Blender v2.79 (sub 0) OBJ File: ''
# www.blender.org
mtllib plano.mtl
o Cube_Cube.002
v -0.500000 0.022000 0.500000
v -0.500000 -0.022000 -0.500000
v -0.500000 -0.022000 0.500000
v -0.500000 0.022000 -0.500000
v 0.500000 -0.022000 -0.500000
v 0.500000 0.022000 -0.500000
v 0.500000 -0.022000 0.500000
v 0.500000 0.022000 0.500000
vt 0.000000 0.000000
vt 0.002147 1.000000
vt 0.002147 0.006999
vt 0.000000 0.995393
vt 0.999741 1.000000
vt 1.000000 0.995393
vt 0.999741 0.006999
vt 1.000000 0.000000
vn -1.0000 0.0000 0.0000
vn 0.0000 0.0000 -1.0000
vn 1.0000 0.0000 0.0000
vn 0.0000 0.0000 1.0000
vn 0.0000 -1.0000 -0.0000
vn 0.0000 1.0000 0.0000
usemtl None
s 1
f 1/1/1 2/2/1 3/3/1
f 4/4/2 5/5/2 2/2/2
f 6/6/3 7/7/3 5/5/3
f 8/8/4 3/3/4 7/7/4
f 5/5/5 3/3/5 2/2/5
f 4/4/6 8/8/6 6/6/6
f 1/1/1 4/4/1 2/2/1
f 4/4/2 6/6/2 5/5/2
f 6/6/3 8/8/3 7/7/3
f 8/8/4 1/1/4 3/3/4
f 5/5/5 7/7/5 3/3/5
f 4/4/6 1/1/6 8/8/6
