# Blender v2.78 (sub 0) OBJ File: ''
# www.blender.org
mtllib x.mtl
o X
v -0.000000 0.032904 1.700530
v -0.000000 0.032904 1.110530
v -0.000000 1.332904 0.045529
v 0.000000 0.032904 -1.024470
v 0.000000 0.032904 -1.619470
v -0.000000 1.677904 -0.254471
v -0.000000 3.442904 -1.724471
v -0.000000 3.442904 -1.129471
v -0.000000 2.032904 0.045529
v -0.000000 3.442904 1.205529
v -0.000000 3.442904 1.795529
v -0.000000 1.677904 0.340530
vn 1.0000 0.0000 0.0000
usemtl None
s off
f 6//1 4//1 5//1
f 6//1 3//1 4//1
f 3//1 1//1 2//1
f 3//1 12//1 1//1
f 6//1 12//1 3//1
f 7//1 12//1 6//1
f 7//1 9//1 12//1
f 9//1 11//1 12//1
f 7//1 8//1 9//1
f 10//1 11//1 9//1
