# Blender v2.78 (sub 0) OBJ File: ''
# www.blender.org
mtllib axis.mtl
o Cube.001
v -0.050000 9.999995 -0.050000
v -0.050000 -9.999995 -0.050000
v -0.050000 -9.999994 0.050000
v -0.050000 9.999999 0.050000
v 0.050000 9.999990 -0.050000
v 0.050000 -10.000002 -0.050000
v 0.050000 -9.999991 0.050000
v 0.050000 9.999995 0.050000
v -9.999994 -0.050000 -0.050000
v 9.999995 -0.050000 -0.050000
v 9.999993 -0.050000 0.050000
v -9.999999 -0.050000 0.050000
v -9.999990 0.050000 -0.050000
v 10.000001 0.050000 -0.050000
v 9.999991 0.050000 0.050000
v -9.999995 0.050000 0.050000
v 0.050000 -0.050000 -9.999995
v 0.050000 -0.050000 9.999995
v -0.050000 -0.050000 9.999994
v -0.050000 -0.050000 -9.999999
v 0.050000 0.050000 -9.999990
v 0.050000 0.050000 10.000002
v -0.050000 0.050000 9.999991
v -0.050000 0.050000 -9.999995
vn -1.0000 0.0000 0.0000
vn 1.0000 -0.0000 -0.0000
vn -0.0000 0.0000 -1.0000
vn -0.0001 -1.0000 -0.0000
vn -0.0000 -0.0000 1.0000
vn 0.0000 1.0000 -0.0001
vn 0.0000 -1.0000 0.0000
vn 0.0000 1.0000 0.0000
vn 1.0000 -0.0001 0.0000
vn -1.0000 0.0000 -0.0001
vn 0.0000 -0.0001 1.0000
vn 0.0001 0.0000 -1.0000
vn 0.0000 -1.0000 0.0001
vn 1.0000 0.0000 0.0001
vn -0.0001 0.0000 1.0000
usemtl Material
s off
f 1//1 3//1 4//1
f 5//2 7//2 6//2
f 5//3 2//3 1//3
f 6//4 3//4 2//4
f 7//5 4//5 3//5
f 1//6 8//6 5//6
f 9//7 11//7 12//7
f 13//8 15//8 14//8
f 13//3 10//3 9//3
f 14//9 11//9 10//9
f 15//5 12//5 11//5
f 13//10 12//10 16//10
f 17//7 19//7 20//7
f 21//8 23//8 22//8
f 21//2 18//2 17//2
f 22//11 19//11 18//11
f 23//1 20//1 19//1
f 17//12 24//12 21//12
f 1//1 2//1 3//1
f 5//2 8//2 7//2
f 5//3 6//3 2//3
f 6//13 7//13 3//13
f 7//5 8//5 4//5
f 1//8 4//8 8//8
f 9//7 10//7 11//7
f 13//8 16//8 15//8
f 13//3 14//3 10//3
f 14//14 15//14 11//14
f 15//5 16//5 12//5
f 13//1 9//1 12//1
f 17//7 18//7 19//7
f 21//8 24//8 23//8
f 21//2 22//2 18//2
f 22//15 23//15 19//15
f 23//1 24//1 20//1
f 17//3 20//3 24//3
